<svg xmlns="http://www.w3.org/2000/svg" aria-labelledby="jgt" viewBox="0 0 700 588" xmlns:c2pa="http://c2pa.org/manifest"><metadata><c2pa:manifest>AAAWgmp1bWIAAAAeanVtZGMycGEAEQAQgAAAqgA4m3EDYzJwYQAAABZcanVtYgAAAEdqdW1kYzJtYQARABCAAACqADibcQN1cm46YzJwYTo5MDEyODNiYy0yMTdjLTQ1YzEtYmRkZi02Mjg2MzU3NmQ0YjUAAAADl2p1bWIAAAApanVtZGMyYXMAEQAQgAAAqgA4m3EDYzJwYS5hc3NlcnRpb25zAAAAALxqdW1iAAAARGp1bWRjYm9yABEAEIAAAKoAOJtxE2MycGEuaW5ncmVkaWVudC52MwAAAAAYYzJzaI76BL8luFKZXVBK/064Q5gAAABwY2JvcqNpZGM6Zm9ybWF0bWltYWdlL3N2Zyt4bWxqaW5zdGFuY2VJRHgseG1wOmlpZDowYjIxMjQ4OC00MGUxLTQyMjYtODJhYi03ZDA1ZTc4MTA1NGFscmVsYXRpb25zaGlwaHBhcmVudE9mAAAB4mp1bWIAAABBanVtZGNib3IAEQAQgAAAqgA4m3ETYzJwYS5hY3Rpb25zLnYyAAAAABhjMnNoDHgWKMGSVEtU97KqRwgqGAAAAZljYm9yomdhY3Rpb25zgqJmYWN0aW9ua2MycGEub3BlbmVkanBhcmFtZXRlcnOha2luZ3JlZGllbnRzgaJjdXJseC1zZWxmI2p1bWJmPWMycGEuYXNzZXJ0aW9ucy9jMnBhLmluZ3JlZGllbnQudjNkaGFzaFggUkch5L1bHtio1MD6rzneKLwN7ITNRBI9UcIMfvyaki6kZmFjdGlvbngdY29tLmFudGhyb3BpYy5jbGF1ZGUucHJvdmlkZWRqcGFyYW1ldGVyc6F4H2NvbS5hbnRocm9waWMub3JpZ2luLWNvbmZpZGVuY2VndW5rbm93bmtkZXNjcmlwdGlvbnhmQ2xhdWRlIHByb3ZpZGVkIHRoaXMgZmlsZSBhdCB0aGUgcmVxdWVzdCBvZiBhIHVzZXIgYW5kIG1heSBoYXZlIGNyZWF0ZWQgb3IgbW9kaWZpZWQgdGhlIGZpbGUgY29udGVudHMubXNvZnR3YXJlQWdlbnShZG5hbWVmQ2xhdWRlcmFsbEFjdGlvbnNJbmNsdWRlZPUAAADIanVtYgAAAEBqdW1kY2JvcgARABCAAACqADibcRNjMnBhLmhhc2guZGF0YQAAAAAYYzJzaJts5z7KVL/uEHi3NxAfZQwAAACAY2JvcqVjYWxnZnNoYTI1NmNwYWRNAAAAAAAAAAAAAAAAAGRoYXNoWCCxz82IGPBClp/XnzOy4D+kaRSWMGdThV8GiKsqvQ7G/WRuYW1lbmp1bWJmIG1hbmlmZXN0amV4Y2x1c2lvbnOBomVzdGFydBiTZmxlbmd0aBkeBAAAAj5qdW1iAAAAJ2p1bWRjMmNsABEAEIAAAKoAOJtxA2MycGEuY2xhaW0udjIAAAACD2Nib3KlY2FsZ2ZzaGEyNTZpc2lnbmF0dXJleE1zZWxmI2p1bWJmPS9jMnBhL3VybjpjMnBhOjkwMTI4M2JjLTIxN2MtNDVjMS1iZGRmLTYyODYzNTc2ZDRiNS9jMnBhLnNpZ25hdHVyZWppbnN0YW5jZUlEeCx4bXA6aWlkOjg2NGNjMWIzLTkzY2QtNDRkMC1iYWQwLWIyYjhhYTFmNjk0ZHJjcmVhdGVkX2Fzc2VydGlvbnODomN1cmx4LXNlbGYjanVtYmY9YzJwYS5hc3NlcnRpb25zL2MycGEuaW5ncmVkaWVudC52M2RoYXNoWCBSRyHkvVse2KjUwPqvOd4ovA3shM1EEj1Rwgx+/JqSLqJjdXJseCpzZWxmI2p1bWJmPWMycGEuYXNzZXJ0aW9ucy9jMnBhLmFjdGlvbnMudjJkaGFzaFgglrCQ1wfq/oJRY6xAkFBD6S67HvQKifd/Oghywkdye8WiY3VybHgpc2VsZiNqdW1iZj1jMnBhLmFzc2VydGlvbnMvYzJwYS5oYXNoLmRhdGFkaGFzaFggVqOXIf60qY4VgwhGAhEzIC5SJKDqZ95l69LAZS8XvAd0Y2xhaW1fZ2VuZXJhdG9yX2luZm+jZG5hbWVvQW50aHJvcGljIEZpbGVzZ3ZlcnNpb25lMS4wLjBrc3BlY1ZlcnNpb25lMi40LjAAABA4anVtYgAAAChqdW1kYzJjcwARABCAAACqADibcQNjMnBhLnNpZ25hdHVyZQAAABAIY2JvctKEWQISogEmGCFZAgowggIGMIIBjaADAgECAhRA5aAK7sI50L64g/oGQgU9Z1UTADAKBggqhkjOPQQDAzBJMRcwFQYDVQQKEw5BbnRocm9waWMsIFBCQzEuMCwGA1UEAxMlQW50aHJvcGljIENvbnRlbnQgQ3JlZGVudGlhbHMgUm9vdCBDQTAeFw0yNjA4MDcxODQzNTZaFw0yODA4MDYxOTQzNTZaMEQxFzAVBgNVBAoTDkFudGhyb3BpYywgUEJDMSkwJwYDVQQDEyBBbnRocm9waWMgQ2xhdWRlIENvbnRlbnQgU2lnbmluZzBZMBMGByqGSM49AgEGCCqGSM49AwEHA0IABJh6CmvLUBgFFNU0vUKlOVtE6djd17L5SuwX0LemFisBM3dkd/3cyjxFA3Qo5S46fX0/ihY0VZ7mfb9KF703t5OjWDBWMA4GA1UdDwEB/wQEAwIHgDAVBgNVHSUEDjAMBgorBgEEAYPoXgIBMAwGA1UdEwEB/wQCMAAwHwYDVR0jBBgwFoAUzlHiBIFOZFsj+OPEz5o+nMHXXMIwCgYIKoZIzj0EAwMDZwAwZAIwMXMdFJ4BetLLVY7ORuE9noqbbAZOZn/aArXyTwFAZfKrPzxF2vPoJNf1+UCdg1XGAjBwX1zd9WGqYkqmL5SFqw1QySjr1zJfpJM9+1rdDwSPLMOPOjKuiXjoU/pUUeG9RwmhY3BhZFkNngAAAAAAAAAAAAAAAAAAAAAAAAAAAAAAAAAAAAAAAAAAAAAAAAAAAAAAAAAAAAAAAAAAAAAAAAAAAAAAAAAAAAAAAAAAAAAAAAAAAAAAAAAAAAAAAAAAAAAAAAAAAAAAAAAAAAAAAAAAAAAAAAAAAAAAAAAAAAAAAAAAAAAAAAAAAAAAAAAAAAAAAAAAAAAAAAAAAAAAAAAAAAAAAAAAAAAAAAAAAAAAAAAAAAAAAAAAAAAAAAAAAAAAAAAAAAAAAAAAAAAAAAAAAAAAAAAAAAAAAAAAAAAAAAAAAAAAAAAAAAAAAAAAAAAAAAAAAAAAAAAAAAAAAAAAAAAAAAAAAAAAAAAAAAAAAAAAAAAAAAAAAAAAAAAAAAAAAAAAAAAAAAAAAAAAAAAAAAAAAAAAAAAAAAAAAAAAAAAAAAAAAAAAAAAAAAAAAAAAAAAAAAAAAAAAAAAAAAAAAAAAAAAAAAAAAAAAAAAAAAAAAAAAAAAAAAAAAAAAAAAAAAAAAAAAAAAAAAAAAAAAAAAAAAAAAAAAAAAAAAAAAAAAAAAAAAAAAAAAAAAAAAAAAAAAAAAAAAAAAAAAAAAAAAAAAAAAAAAAAAAAAAAAAAAAAAAAAAAAAAAAAAAAAAAAAAAAAAAAAAAAAAAAAAAAAAAAAAAAAAAAAAAAAAAAAAAAAAAAAAAAAAAAAAAAAAAAAAAAAAAAAAAAAAAAAAAAAAAAAAAAAAAAAAAAAAAAAAAAAAAAAAAAAAAAAAAAAAAAAAAAAAAAAAAAAAAAAAAAAAAAAAAAAAAAAAAAAAAAAAAAAAAAAAAAAAAAAAAAAAAAAAAAAAAAAAAAAAAAAAAAAAAAAAAAAAAAAAAAAAAAAAAAAAAAAAAAAAAAAAAAAAAAAAAAAAAAAAAAAAAAAAAAAAAAAAAAAAAAAAAAAAAAAAAAAAAAAAAAAAAAAAAAAAAAAAAAAAAAAAAAAAAAAAAAAAAAAAAAAAAAAAAAAAAAAAAAAAAAAAAAAAAAAAAAAAAAAAAAAAAAAAAAAAAAAAAAAAAAAAAAAAAAAAAAAAAAAAAAAAAAAAAAAAAAAAAAAAAAAAAAAAAAAAAAAAAAAAAAAAAAAAAAAAAAAAAAAAAAAAAAAAAAAAAAAAAAAAAAAAAAAAAAAAAAAAAAAAAAAAAAAAAAAAAAAAAAAAAAAAAAAAAAAAAAAAAAAAAAAAAAAAAAAAAAAAAAAAAAAAAAAAAAAAAAAAAAAAAAAAAAAAAAAAAAAAAAAAAAAAAAAAAAAAAAAAAAAAAAAAAAAAAAAAAAAAAAAAAAAAAAAAAAAAAAAAAAAAAAAAAAAAAAAAAAAAAAAAAAAAAAAAAAAAAAAAAAAAAAAAAAAAAAAAAAAAAAAAAAAAAAAAAAAAAAAAAAAAAAAAAAAAAAAAAAAAAAAAAAAAAAAAAAAAAAAAAAAAAAAAAAAAAAAAAAAAAAAAAAAAAAAAAAAAAAAAAAAAAAAAAAAAAAAAAAAAAAAAAAAAAAAAAAAAAAAAAAAAAAAAAAAAAAAAAAAAAAAAAAAAAAAAAAAAAAAAAAAAAAAAAAAAAAAAAAAAAAAAAAAAAAAAAAAAAAAAAAAAAAAAAAAAAAAAAAAAAAAAAAAAAAAAAAAAAAAAAAAAAAAAAAAAAAAAAAAAAAAAAAAAAAAAAAAAAAAAAAAAAAAAAAAAAAAAAAAAAAAAAAAAAAAAAAAAAAAAAAAAAAAAAAAAAAAAAAAAAAAAAAAAAAAAAAAAAAAAAAAAAAAAAAAAAAAAAAAAAAAAAAAAAAAAAAAAAAAAAAAAAAAAAAAAAAAAAAAAAAAAAAAAAAAAAAAAAAAAAAAAAAAAAAAAAAAAAAAAAAAAAAAAAAAAAAAAAAAAAAAAAAAAAAAAAAAAAAAAAAAAAAAAAAAAAAAAAAAAAAAAAAAAAAAAAAAAAAAAAAAAAAAAAAAAAAAAAAAAAAAAAAAAAAAAAAAAAAAAAAAAAAAAAAAAAAAAAAAAAAAAAAAAAAAAAAAAAAAAAAAAAAAAAAAAAAAAAAAAAAAAAAAAAAAAAAAAAAAAAAAAAAAAAAAAAAAAAAAAAAAAAAAAAAAAAAAAAAAAAAAAAAAAAAAAAAAAAAAAAAAAAAAAAAAAAAAAAAAAAAAAAAAAAAAAAAAAAAAAAAAAAAAAAAAAAAAAAAAAAAAAAAAAAAAAAAAAAAAAAAAAAAAAAAAAAAAAAAAAAAAAAAAAAAAAAAAAAAAAAAAAAAAAAAAAAAAAAAAAAAAAAAAAAAAAAAAAAAAAAAAAAAAAAAAAAAAAAAAAAAAAAAAAAAAAAAAAAAAAAAAAAAAAAAAAAAAAAAAAAAAAAAAAAAAAAAAAAAAAAAAAAAAAAAAAAAAAAAAAAAAAAAAAAAAAAAAAAAAAAAAAAAAAAAAAAAAAAAAAAAAAAAAAAAAAAAAAAAAAAAAAAAAAAAAAAAAAAAAAAAAAAAAAAAAAAAAAAAAAAAAAAAAAAAAAAAAAAAAAAAAAAAAAAAAAAAAAAAAAAAAAAAAAAAAAAAAAAAAAAAAAAAAAAAAAAAAAAAAAAAAAAAAAAAAAAAAAAAAAAAAAAAAAAAAAAAAAAAAAAAAAAAAAAAAAAAAAAAAAAAAAAAAAAAAAAAAAAAAAAAAAAAAAAAAAAAAAAAAAAAAAAAAAAAAAAAAAAAAAAAAAAAAAAAAAAAAAAAAAAAAAAAAAAAAAAAAAAAAAAAAAAAAAAAAAAAAAAAAAAAAAAAAAAAAAAAAAAAAAAAAAAAAAAAAAAAAAAAAAAAAAAAAAAAAAAAAAAAAAAAAAAAAAAAAAAAAAAAAAAAAAAAAAAAAAAAAAAAAAAAAAAAAAAAAAAAAAAAAAAAAAAAAAAAAAAAAAAAAAAAAAAAAAAAAAAAAAAAAAAAAAAAAAAAAAAAAAAAAAAAAAAAAAAAAAAAAAAAAAAAAAAAAAAAAAAAAAAAAAAAAAAAAAAAAAAAAAAAAAAAAAAAAAAAAAAAAAAAAAAAAAAAAAAAAAAAAAAAAAAAAAAAAAAAAAAAAAAAAAAAAAAAAAAAAAAAAAAAAAAAAAAAAAAAAAAAAAAAAAAAAAAAAAAAAAAAAAAAAAAAAAAAAAAAAAAAAAAAAAAAAAAAAAAAAAAAAAAAAAAAAAAAAAAAAAAAAAAAAAAAAAAAAAAAAAAAAAAAAAAAAAAAAAAAAAAAAAAAAAAAAAAAAAAAAAAAAAAAAAAAAAAAAAAAAAAAAAAAAAAAAAAAAAAAAAAAAAAAAAAAAAAAAAAAAAAAAAAAAAAAAAAAAAAAAAAAAAAAAAAAAAAAAAAAAAAAAAAAAAAAAAAAAAAAAAAAAAAAAAAAAAAAAAAAAAAAAAAAAAAAAAAAAAAAAAAAAAAAAAAAAAAAAAAAAAAAAAAAAAAAAAAAAAAAAAAAAAAAAAAAAAAAAAAAAAAAAAAAAAAAAAAAAAAAAAAAAAAAAAAAAAAAAAAAAAAAAAAAAAAAAAAAAAAAAAAAAAAAAAAAAAAAAAAAAAAAAAAAAAAAAAAAAAAAAAAAAAAAAAAAAAAAAAAAAAAAAAAAAAAAAAAAAAAAAAAAAAAAAAAAAAAAAAAAAAAAAAAAAAAAAAAAAAAAAAAAAAAAAAAAAAAAAAAAAAAAAAAAAAAAAAAAAAAAAAAAAAAAAAAAAAAAAAAAAAAAAAAAAAAAAAAAAAAAAAAAAAAAAAAAAAAAAAAAAAAAAAAAAAAAAAAAAAAAAAAAAAAAAAAAAAAAAAAAAAAAAAAAAAAAAAAAAAAAAAAAAAAAAAAAAAAAAAAAAAAAAAAAAAAAAAAAAAAAAAAAAAAAAAAAAAAAAAAAAAAAAAAAAAAAAAAAAAAAAAAAAAAAAAAAAAAAAAAAAAAAAAAAAAAAAAAAAAAAAAAAAAAAAAAAAAAAAAAAAAAAAAAAAAAAAAAAAAAAAAAAAAAAAAAAAAAAAAAAAAAAAAAAAAAAAAAAAAAAAAAAAAAAAAAAAAAAAAAAAAAAAAAAAAAAAAAAAAAAAAAAAAAAAAAAAAAAAAAAAAAAAAAAAAAAAAAAAAAAAAAAAAAAAAAAAAAAAAAAAAAAAAAAAAAAAAAAAAAAAAAAAAAAAAAAAAAAAAAAAAAAAAAAAAAAAAAAAAAAAAAAAAAAAAAAAAAAAAAAAAAAAAAAAAAAAAAAAAAAAAAAAAAAAAAAAAAAAAAAAAAAAAAAAAAAAAAAAAAAAAAAAAAAAAAAAAAAAAAAAAAAAAAAAAAAAAAAAAAAAAAAAAAAAAAAAAAAAAAAAAAAAAAAAAAAAAAAAAAAAAAAAAAAAAAAAAAAAAAAAAAAAAAAAAAAAAAAAAAAAAAAAAAAAAAAAAAAAAAAAAAAAAAAAAAAAAAAAAAAAAAAAAAAAAAAAAAAAAAAAAAAAAAAAAAAAAAAAAAAAAAAAAAAAAAAAAAAAAAAAAAAAAAAAAAAAAAAAAAAAAAAAAAAAAAAAAAAAAAAAAAAAAAAAAAAAAAAAAAAAAAAAAAAAAAAAAAAAAAAAAAAAAAAAAAAAAAAAAAAAAAAAAAAAAAAAAAAAAAAAAAAAAAAAAAAAAAAAAAAAAAAAAAAAAAAAAAAAAAAAAAAAAAAAAAAAAAAAAAAAAAAAAAAAAAAAAAAAAAAAAAAAAAAAAAAAAAAAAAAAAAAAPZYQL+EOWHzrdfQJhMzD1NF9GPJhoUarNJDJEa39AyvUqwV434p5Kldv2zs9lEqd5cBNpEx52pPFEVdelemZ54yYnc=</c2pa:manifest></metadata><title>JG Parfums</title><desc>Logotipo vertical en onix para fondos claros</desc><path fill="#201e1f" d="M453.68.5c-.4.48-.73.5-5.55.5-4.65 0-5.25.05-6.13.5-.82.43-1.47.5-4 .5s-3.17.08-4 .5c-.8.4-1.47.5-3.5.5-2.02 0-2.7.1-3.5.5-.75.38-1.47.5-3 .5-1.52 0-2.25.13-3 .5q-.96.51-2.5.5t-2.5.5c-.55.28-1.45.5-2 .5s-1.45.23-2 .5c-.55.28-1.45.5-2 .5s-1.45.23-2 .5c-.55.28-1.45.5-2 .5s-1.45.23-2 .5a5 5 0 0 1-1.5.5c-.28 0-.95.23-1.5.5a5 5 0 0 1-1.5.5c-.28 0-.95.23-1.5.5-.55.28-1.45.5-2 .5s-1.45.23-2 .5a5 5 0 0 1-1.5.5c-.28 0-.95.23-1.5.5-.55.28-1.2.5-1.5.5-.28 0-1.4.45-2.5 1s-2.22 1-2.5 1c-.3 0-.95.23-1.5.5-.55.28-1.2.5-1.5.5-.28 0-1.85.68-3.5 1.5-1.65.83-3.22 1.5-3.5 1.5-.65 0-20.85 10.1-22 11-.47.38-2.1 1.33-3.62 2.1-1.5.78-3.3 1.8-4 2.28-1.43 1-3.08 2.1-4.43 3l-1.87 1.24c-1.35.88-3 2-4.45 3-.68.48-1.58 1.06-2 1.28-.4.23-1.3.93-1.98 1.53-.7.62-1.6 1.27-2 1.5-.43.22-1.52 1.1-2.45 1.97-.92.88-2.05 1.78-2.5 2-.45.23-1.58 1.13-2.5 2s-2.05 1.78-2.5 2c-.45.23-3.17 2.75-6.07 5.58-2.88 2.85-5.6 5.32-6.05 5.5-.5.2-.88.6-1.05 1.07-.15.45-2.5 3-5.65 6.2-2.95 2.98-5.38 5.6-5.38 5.83 0 .22-1.35 1.82-3 3.52-1.65 1.73-3 3.28-3 3.45 0 .2-.67 1.1-1.5 2.03-.82.95-1.5 1.85-1.5 2a9 9 0 0 1-1.5 2c-.82.95-1.5 1.82-1.5 1.97 0 .13-.45.83-1 1.5-.55.7-1 1.38-1 1.5 0 .15-.45.83-1 1.5-.55.7-1 1.38-1 1.5 0 .15-.45.83-1 1.5-.55.7-1 1.38-1 1.5 0 .15-.45.83-1 1.5-.55.7-1 1.38-1 1.53 0 .12-.37.7-.82 1.27-.48.58-1.43 2.2-2.15 3.65-.7 1.45-1.6 3.03-1.98 3.5-.4.48-2.45 4.35-4.6 8.63-4.82 9.6-4.98 9.9-5.52 10.22-.75.48-.98-.27-.4-1.4.27-.52.4-1.1.3-1.27q-.27-.41-.73-4.53c-.12-.98-.05-1.42.38-2.18.5-.87.52-1.02.17-1.64-.3-.63-.3-.83 0-1.55.3-.7.35-9.3.35-56.95 0-56.13 0-56.13-.85-56.98S257.3 5 145.8 5c-61.32 0-111.68.08-111.9.15-.62.25-.5.55.85 2.03.7.75 1.25 1.52 1.25 1.72s.9 1.33 2 2.5c1.1 1.2 2 2.33 2 2.53 0 .17 1.13 1.52 2.5 2.97s2.5 2.8 2.5 3 1.13 1.55 2.5 3 2.5 2.8 2.5 3 1.13 1.55 2.5 3 2.5 2.8 2.5 3 .9 1.33 2 2.5c1.1 1.2 2 2.33 2 2.53 0 .17 1.13 1.52 2.5 2.97s2.5 2.8 2.5 3 1.13 1.55 2.5 3 2.5 2.8 2.5 3 .9 1.33 2 2.5c1.1 1.2 2 2.33 2 2.53 0 .17 1.13 1.52 2.5 2.97s2.5 2.8 2.5 3 .9 1.33 2 2.5c1.1 1.2 2 2.33 2 2.53 0 .17 1.13 1.52 2.5 2.97s2.5 2.78 2.5 2.98c0 1.2-3 1.12 52.5 1.12 46.68 0 51.75.05 52.1.4.7.7.6 198.53-.1 199.65-.45.78-.5 1.28-.5 7 0 5.75-.02 6.25-.5 7-.43.7-.5 1.28-.5 3.5 0 2.25-.08 2.83-.5 3.5-.37.6-.5 1.28-.5 2.5 0 1.25-.12 1.9-.5 2.5-.3.53-.5 1.28-.5 2 0 .75-.17 1.5-.5 2-.3.53-.5 1.28-.5 2 0 .75-.17 1.5-.5 2-.28.45-.5 1.13-.5 1.5s-.22 1.05-.5 1.5-.5 1.13-.5 1.5-.22 1.05-.5 1.5-.5 1.1-.5 1.45-.45 1.5-1 2.58a10 10 0 0 0-1 2.45c0 .7-5.05 10.82-5.97 11.97-.38.48-1.28 2.05-2 3.5a26 26 0 0 1-2.15 3.73c-.48.6-.88 1.22-.88 1.37 0 .18-.67 1.05-1.5 1.98a9 9 0 0 0-1.5 2.02c0 .2-.9 1.3-2 2.5-1.1 1.18-2 2.33-2 2.55 0 .55-10.95 11.58-12.27 12.35-.58.35-1.88 1.38-2.9 2.33a21 21 0 0 1-2.66 2.1 12 12 0 0 0-2.02 1.5c-.7.62-1.65 1.32-2.13 1.6q-1.31.7-4.42 2.95a23 23 0 0 1-2.63 1.52c-.87.45-2 1.13-2.47 1.5-1.15.9-21.35 11-22 11-.28 0-1.4.45-2.5 1s-2.23 1-2.5 1c-.3 0-.95.23-1.5.5-.55.28-1.2.5-1.5.5-.28 0-1.4.45-2.5 1s-2.23 1-2.5 1c-.3 0-.95.23-1.5.5a5 5 0 0 1-1.5.5c-.28 0-.95.23-1.5.5a5 5 0 0 1-1.5.5c-.28 0-.95.23-1.5.5a5 5 0 0 1-1.5.5c-.28 0-.95.23-1.5.5-.55.28-1.45.5-2 .5s-1.45.23-2 .5a5 5 0 0 1-1.5.5c-.28 0-.95.23-1.5.5-.55.28-1.45.5-2 .5s-1.45.23-2 .5c-.55.28-1.45.5-2 .5s-1.45.23-2 .5c-.55.28-1.45.5-2 .5s-1.45.23-2 .5q-.97.51-2.5.5-1.54-.01-2.5.5-.97.51-2.5.5-1.54-.01-2.5.5c-.8.4-1.48.5-3.5.5s-2.7.1-3.5.5c-.83.43-1.48.5-4 .5s-3.18.08-4 .5c-.85.45-1.48.5-5 .5s-4.15.05-5 .5c-.93.48-1.48.5-10 .5s-9.08.03-10 .5c-.88.45-1.48.5-5.93.5-6.52 0-6.82.38-3.55 3.98a8 8 0 0 1 1.48 1.9c0 .17.45.87 1 1.57.55.68 1 1.38 1 1.5 0 .15.67 1.03 1.5 1.98.82.92 1.5 1.8 1.5 1.97 0 .15.45.85 1 1.55.55.68 1 1.38 1 1.5 0 .15.67 1.03 1.5 1.98.82.92 1.5 1.8 1.5 1.97 0 .15.45.85 1 1.55.55.68 1 1.35 1 1.5 0 .13.45.8 1 1.5.55.68 1 1.38 1 1.5 0 .15.67 1.03 1.5 1.98.82.92 1.5 1.8 1.5 1.97 0 .15.45.85 1 1.55.55.68 1 1.35 1 1.5 0 .13.45.8 1 1.5.55.68 1 1.38 1 1.5 0 .15.67 1.03 1.5 1.98.82.92 1.5 1.8 1.5 1.97 0 .15.45.85 1 1.55.55.68 1 1.35 1 1.5 0 .13.45.8 1 1.5.55.68 1 1.38 1 1.5 0 .15.67 1.03 1.5 1.98.82.92 1.5 1.8 1.5 1.97 0 .15.45.85 1 1.55.55.68 1 1.38 1 1.5 0 .15.67 1.03 1.5 1.98.82.92 1.5 1.8 1.5 1.97 0 .15.42.83.97 1.5a10 10 0 0 1 1.13 1.73c.42 1.3 2.87 3.45 3.72 3.25.43-.1 2.55-.25 4.68-.35 3-.13 4.05-.25 4.67-.58.63-.35 1.4-.45 3.33-.45 2.02 0 2.7-.1 3.5-.5s1.47-.5 3.5-.5c2.02 0 2.7-.1 3.5-.5q.97-.51 2.5-.5t2.5-.5c.75-.37 1.47-.5 3-.5 1.52 0 2.25-.12 3-.5q.97-.51 2.5-.5t2.5-.5c.55-.27 1.45-.5 2-.5s1.45-.22 2-.5c.55-.27 1.45-.5 2-.5s1.45-.22 2-.5c.55-.27 1.45-.5 2-.5s1.45-.22 2-.5c.55-.27 1.45-.5 2-.5s1.45-.22 2-.5c.55-.27 1.45-.5 2-.5s1.45-.22 2-.5c.55-.27 1.45-.5 2-.5s1.45-.22 2-.5a5 5 0 0 1 1.5-.5c.27 0 .95-.22 1.5-.5a5 5 0 0 1 1.5-.5c.27 0 .95-.22 1.5-.5a5 5 0 0 1 1.5-.5c.27 0 .95-.22 1.5-.5a5 5 0 0 1 1.5-.5c.27 0 .95-.22 1.5-.5.55-.27 1.2-.5 1.5-.5.27 0 1.4-.45 2.5-1s2.22-1 2.5-1c.3 0 .95-.22 1.5-.5a5 5 0 0 1 1.5-.5c.27 0 .95-.22 1.5-.5.55-.27 1.2-.5 1.5-.5.27 0 1.4-.45 2.5-1s2.22-1 2.5-1 1.85-.67 3.5-1.5c1.65-.82 3.22-1.5 3.5-1.5.65 0 18.85-9.1 20-10 .47-.37 1.67-1.1 2.62-1.6.98-.5 2.33-1.3 3-1.77q2.16-1.49 4.7-3.2c1.2-.8 2.03-1.33 4.3-2.8.63-.43 1.8-1.3 2.58-1.95.77-.68 1.77-1.4 2.17-1.6.43-.23 1.3-.9 1.98-1.5.7-.63 1.6-1.28 2-1.5.42-.23 1.75-1.33 2.92-2.48 1.2-1.12 2.6-2.27 3.13-2.55 1.2-.62 22.1-21.52 22.1-22.1 0-.2.9-1.35 2-2.55 1.1-1.17 2-2.3 2-2.47s.67-1.08 1.5-2a11 11 0 0 0 1.5-1.98c0-.12.45-.82 1-1.5.55-.7 1-1.37 1-1.5 0-.15.45-.82 1-1.5.55-.7 1-1.37 1-1.5 0-.15.45-.82 1-1.5.55-.7 1-1.37 1-1.52 0-.13.37-.7.82-1.28.48-.57 1.43-2.2 2.15-3.65.7-1.45 1.6-3.02 1.98-3.5.92-1.15 7.05-13.4 7.05-14.07 0-.28.9-2.3 2-4.48 1.1-2.2 2-4.25 2-4.57 0-.35.22-.98.5-1.43.27-.45.5-1.12.5-1.5s.22-1.05.5-1.5c.27-.45.5-1.12.5-1.5s.22-1.05.5-1.5c.27-.45.5-1.12.5-1.5s.22-1.05.5-1.5c.3-.52.5-1.27.5-2 0-.87.15-1.35.57-1.85.78-.9 1.43-.67 1.43.48 0 .45.1.92.22 1.05.53.55 1.78 3.27 1.78 3.87 0 .35.22 1 .5 1.45.27.45.5 1.08.5 1.43 0 .32 1.12 2.82 2.5 5.57 1.38 2.73 2.5 5.2 2.5 5.48 0 .7 4.13 8.92 5.03 10.07.4.48 1.52 2.5 2.5 4.5 1 2 2.17 4.08 2.65 4.65.44.58.82 1.15.82 1.28 0 .15.4.75.87 1.35.48.6 1.23 1.82 1.65 2.72.45.9 1.18 2.08 1.63 2.65.47.58.85 1.15.85 1.28 0 .15.45.82 1 1.52.55.68 1 1.35 1 1.5 0 .13.45.8 1 1.5.55.68 1 1.38 1 1.5 0 .15.67 1.03 1.5 1.98a9 9 0 0 1 1.5 2c0 .15.67 1.05 1.5 2a9 9 0 0 1 1.5 2c0 .17.9 1.3 2 2.47 1.1 1.2 2 2.33 2 2.53s1.57 2 3.5 3.97c1.92 1.98 3.5 3.78 3.5 4.03 0 .6 11.87 12.5 13.12 13.12.55.3 2.4 1.9 4.13 3.58 1.72 1.67 3.5 3.25 3.95 3.47s1.57 1.13 2.5 2 2.02 1.75 2.45 1.98c.4.22 1.3.87 2 1.5.67.6 1.57 1.27 2 1.5.4.2 1.3.87 2 1.5.67.6 1.57 1.3 1.97 1.52.43.23 1.33.8 2 1.28a243 243 0 0 0 6.38 4.27c1.25.85 2.95 1.98 4.37 2.98.7.47 2.05 1.27 3 1.77.98.5 2.15 1.23 2.63 1.6 1.15.9 23.35 12 24 12 .27 0 1.4.45 2.5 1s2.22 1 2.5 1 1.4.45 2.5 1 2.22 1 2.5 1c.3 0 .95.23 1.5.5.55.28 1.22.5 1.5.5.27 0 .95.23 1.5.5.55.28 1.22.5 1.5.5.27 0 .95.23 1.5.5.55.28 1.22.5 1.5.5.27 0 .95.23 1.5.5.55.28 1.22.5 1.5.5.27 0 .95.23 1.5.5.55.28 1.22.5 1.5.5.27 0 .95.23 1.5.5.55.28 1.45.5 2 .5s1.45.23 2 .5c.55.28 1.45.5 2 .5s1.45.23 2 .5c.55.28 1.45.5 2 .5s1.45.23 2 .5q.96.51 2.5.5 1.53-.01 2.5.5.96.51 2.5.5 1.53-.01 2.5.5c.75.38 1.47.5 3 .5 1.52 0 2.25.13 3 .5.8.4 1.47.5 3.5.5 2.02 0 2.7.1 3.5.5.85.45 1.47.5 5 .5 3.52 0 4.15.05 5 .5 1.52.78 37.47.78 39 0 .85-.42 1.47-.5 4.5-.5 3.02 0 3.65-.07 4.5-.5.8-.4 1.47-.5 3.5-.5 2.02 0 2.7-.1 3.5-.5q.96-.51 2.5-.5 1.53.01 2.5-.5c.75-.37 1.47-.5 3-.5 1.52 0 2.25-.12 3-.5.55-.27 1.45-.5 2-.5s1.45-.22 2-.5c.55-.27 1.45-.5 2-.5s1.45-.22 2-.5c.55-.27 1.45-.5 2-.5s1.45-.22 2-.5a5 5 0 0 1 1.5-.5c.28 0 .95-.22 1.5-.5a5 5 0 0 1 1.5-.5c.28 0 .95-.22 1.5-.5.55-.27 1.45-.5 2-.5s1.45-.22 2-.5c.55-.27 1.2-.5 1.5-.5.28 0 1.4-.45 2.5-1s2.23-1 2.5-1c.3 0 .95-.22 1.5-.5a5 5 0 0 1 1.5-.5c.28 0 .95-.22 1.5-.5.55-.27 1.2-.5 1.5-.5.28 0 1.85-.67 3.5-1.5a21 21 0 0 1 3.5-1.5c.28 0 1.4-.45 2.5-1s2.23-1 2.5-1c.65 0 14.85-7.1 16-8 .48-.37 2.5-1.5 4.5-2.5s4.03-2.12 4.5-2.5c.48-.37 1.68-1.1 2.63-1.6.97-.5 2.32-1.3 3-1.77 1.42-1 3.12-2.13 4.37-2.98a243 243 0 0 0 6.38-4.27c.7-.48 1.6-1.05 2-1.28.42-.22 1.3-.92 1.97-1.52.7-.63 1.6-1.3 2-1.5.43-.23 1.33-.9 2-1.5.7-.63 1.6-1.28 2-1.5.43-.23 1.75-1.33 2.93-2.45a21 21 0 0 1 3-2.5c.47-.25 2.7-2.25 4.97-4.5 2.28-2.23 4.58-4.28 5.13-4.58 1.22-.62 7.12-6.55 7.12-7.15 0-.25 2.48-2.95 5.5-6.02 3.03-3.05 5.5-5.73 5.5-5.93 0-.22.9-1.35 2-2.55 1.1-1.17 2-2.3 2-2.5 0-.17.9-1.3 2-2.5 1.1-1.17 2-2.3 2-2.47s.68-1.08 1.5-2a10 10 0 0 0 1.5-1.98c0-.12.45-.82 1-1.5.55-.7 1-1.37 1-1.5 0-.15.45-.82 1-1.5.55-.7 1-1.37 1-1.52 0-.13.38-.7.83-1.28.47-.57 1.17-1.7 1.57-2.52.38-.83 1.08-1.95 1.5-2.5.43-.55 1.35-2.18 2.08-3.63a28 28 0 0 1 1.97-3.5c.95-1.17 8.05-15.4 8.05-16.1 0-.3.45-1.4 1-2.47.55-1.05 1-2.18 1-2.5 0-.3.45-1.43 1-2.5.55-1.05 1-2.18 1-2.5 0-.3.45-1.43 1-2.5.55-1.05 1-2.2 1-2.53 0-.35.23-1 .5-1.45.28-.45.5-1.12.5-1.5s.23-1.05.5-1.5c.28-.45.5-1.12.5-1.5s.23-1.05.5-1.5c.3-.52.5-1.27.5-2 0-.75.18-1.5.5-2 .38-.6.5-1.27.5-2.5 0-1.25.13-1.9.5-2.5.4-.65.5-1.27.5-3 0-1.75.1-2.35.5-3s.5-1.27.5-3c0-1.75.1-2.35.5-3 .43-.7.5-1.27.5-4 0-2.75.08-3.3.5-4 .45-.72.5-1.27.5-4.5 0-3.25.05-3.77.5-4.5.45-.72.5-1.27.5-4.5 0-3.25.05-3.77.5-4.5.45-.72.5-1.27.5-4.5 0-3.25.05-3.77.5-4.5.45-.75.5-1.27.5-5.5 0-4.25.05-4.77.5-5.5.75-1.22.65-2.1-.35-3.1-.85-.85-.85-.85-87.5-.85-96.97 0-87.12-.22-90.25 2.03a53 53 0 0 1-4.27 2.87c-.4.23-1.3.93-1.98 1.53-.7.62-1.6 1.3-2 1.5-.42.22-1.32.9-2 1.5-.7.62-1.65 1.32-2.12 1.6-1.28.7-3.18 2.02-4.78 3.35-.77.62-1.8 1.4-2.3 1.7a33 33 0 0 0-4.65 3.25 14 14 0 0 1-2.17 1.6c-.4.22-1.3.9-1.98 1.5-.7.62-1.65 1.32-2.12 1.6-1.28.7-3.18 2.02-4.78 3.35-.77.62-1.8 1.4-2.3 1.7a33 33 0 0 0-4.65 3.25 14 14 0 0 1-2.17 1.6c-.4.22-1.38.95-2.13 1.65a10 10 0 0 1-2.05 1.47c-.92.33-1.05.88-.45 1.88.28.47.5 1.15.5 1.52s.23 1.05.5 1.5c.28.45.5 1.13.5 1.5s.23 1.05.5 1.5c.28.45.5 1.13.5 1.5s.23 1.05.5 1.5c.28.45.5 1.13.5 1.5s.23 1.05.5 1.5c.28.45.5 1.13.5 1.5s.23 1.05.5 1.5c.28.45.5 1.13.5 1.5s.23 1.05.5 1.5c.28.45.5 1.13.5 1.5s.23 1.05.5 1.5c.3.48.5 1.25.5 1.93 0 .92 1.68 4.95 2.43 5.87.07.08 31.12.18 69.02.25 65.18.13 68.93.15 69 .55.05.25-.25 1.13-.67 1.95a7 7 0 0 0-.78 2.05c0 .68-6.05 12.8-6.97 13.95a18 18 0 0 0-1.5 2.5c-.43.9-1.18 2.13-1.65 2.73a6 6 0 0 0-.88 1.32c0 .15-.45.83-1 1.5-.55.7-1 1.38-1 1.5 0 .15-.45.83-1 1.5-.55.7-1 1.4-1 1.55 0 .18-.67 1.05-1.5 1.98-.82.95-1.5 1.85-1.5 2a9 9 0 0 1-1.5 2c-.82.95-1.5 1.87-1.5 2.1 0 .55-17.97 18.55-19.27 19.35a21 21 0 0 0-2.9 2.3 21 21 0 0 1-2.65 2.1c-.45.22-1.35.9-2.03 1.5-.7.62-1.65 1.32-2.12 1.6q-1.32.7-4.43 2.95c-.55.4-1.72 1.07-2.62 1.52-.88.45-2 1.13-2.48 1.5-1.15.9-19.35 10-20 10-.27 0-1.4.45-2.5 1s-2.22 1-2.5 1c-.3 0-.95.23-1.5.5a5 5 0 0 1-1.5.5c-.27 0-.95.23-1.5.5a5 5 0 0 1-1.5.5c-.27 0-.95.23-1.5.5a5 5 0 0 1-1.5.5c-.27 0-.95.23-1.5.5-.55.28-1.45.5-2 .5s-1.45.23-2 .5c-.55.28-1.45.5-2 .5s-1.45.23-2 .5c-.55.28-1.45.5-2 .5s-1.45.23-2 .5q-.96.51-2.5.5-1.53-.01-2.5.5c-.75.38-1.47.5-3 .5-1.52 0-2.25.13-3 .5-.8.4-1.47.5-3.5.5-2.02 0-2.7.1-3.5.5-.9.45-1.47.5-6.5.5-5.02 0-5.6.05-6.5.5-1.47.75-11.52.75-13 0-.9-.45-1.47-.5-6.5-.5-5.02 0-5.6-.05-6.5-.5-.82-.42-1.47-.5-4-.5-2.52 0-3.17-.07-4-.5a5 5 0 0 0-2.5-.5 5 5 0 0 1-2.5-.5 5 5 0 0 0-2.5-.5 5 5 0 0 1-2.5-.5 5 5 0 0 0-2-.5c-.55 0-1.45-.22-2-.5a5 5 0 0 0-1.5-.5 5 5 0 0 1-1.5-.5 5 5 0 0 0-2-.5c-.55 0-1.45-.22-2-.5a5 5 0 0 0-1.5-.5 5 5 0 0 1-1.5-.5c-.55-.27-1.2-.5-1.5-.5-.27 0-1.4-.45-2.5-1s-2.22-1-2.5-1-1.4-.45-2.5-1-2.22-1-2.5-1c-.65 0-16.85-8.1-18-9-.47-.37-1.65-1.1-2.62-1.6-.95-.5-2.3-1.3-3-1.77-.68-.48-1.75-1.2-2.38-1.63l-2.37-1.62a28 28 0 0 0-2.15-1.35c-.48-.28-1.43-.98-2.13-1.6-.67-.6-1.6-1.3-2.05-1.53a16 16 0 0 1-2.5-2 16 16 0 0 0-2.55-2.02 38 38 0 0 1-4.12-3.6 44 44 0 0 0-4.35-3.78c-1.3-.75-6.28-5.82-6.28-6.4 0-.22-1.57-2.02-3.5-4-1.92-1.97-3.5-3.75-3.5-3.97 0-.2-.9-1.35-2-2.53-1.1-1.2-2-2.3-2-2.47s-.45-.88-1-1.58a6 6 0 0 1-1-1.52c0-.13-.6-.95-1.35-1.78a17 17 0 0 1-2.17-3.2 16 16 0 0 0-1.63-2.7 5 5 0 0 1-.85-1.27c0-.15-.4-.75-.87-1.35-.48-.6-1.45-2.28-2.15-3.73a26 26 0 0 0-2.15-3.65c-.53-.65-.83-1.3-.83-1.77q.01-.75-1-2.03c-.57-.72-1-1.52-1-1.87s-.9-2.43-2-4.63c-1.1-2.17-2-4.2-2-4.5a9 9 0 0 0-1-2.47c-.55-1.08-1-2.2-1-2.5a9 9 0 0 0-1-2.5 10 10 0 0 1-1-2.58c0-.35-.22-1-.5-1.45a3.5 3.5 0 0 1-.5-1.5 3.5 3.5 0 0 0-.5-1.5c-.32-.5-.5-1.25-.5-2 0-.72-.2-1.47-.5-2a3.5 3.5 0 0 1-.5-1.5 3.5 3.5 0 0 0-.5-1.5c-.32-.5-.5-1.25-.5-2 0-.72-.2-1.47-.5-2-.32-.5-.5-1.25-.5-2 0-.72-.2-1.47-.5-2-.37-.6-.5-1.25-.5-2.5 0-1.22-.12-1.9-.5-2.5-.4-.65-.5-1.25-.5-3 0-1.72-.1-2.35-.5-3-.42-.67-.5-1.25-.5-3.5 0-2.22-.07-2.8-.5-3.5-.45-.72-.5-1.25-.5-5.5 0-4.22-.05-4.75-.5-5.5-.47-.77-.5-1.25-.5-13.55s.03-12.77.5-13.55c.45-.75.5-1.27.5-5.5 0-4.25.05-4.77.5-5.5.43-.7.5-1.27.5-4 0-2.75.08-3.3.5-4 .38-.6.5-1.27.5-2.5 0-1.25.13-1.9.5-2.5.38-.6.5-1.27.5-2.5 0-1.25.13-1.9.5-2.5.3-.52.5-1.27.5-2 0-.75.18-1.5.5-2 .3-.52.5-1.27.5-2 0-.75.18-1.5.5-2 .28-.45.5-1.12.5-1.5s.23-1.05.5-1.5c.3-.52.5-1.27.5-2 0-.75.18-1.5.5-2 .28-.45.5-1.12.5-1.5s.23-1.05.5-1.5c.28-.45.5-1.1.5-1.45s.45-1.5 1-2.57c.55-1.05 1-2.18 1-2.5 0-.3.45-1.43 1-2.5.55-1.05 1-2.15 1-2.45 0-.7 8.05-16.83 8.98-17.98.37-.47 1.27-2.05 2-3.5.7-1.45 1.67-3.12 2.15-3.72.47-.6.87-1.2.87-1.33 0-.15.45-.82 1-1.5.55-.7 1-1.4 1-1.55 0-.17.68-1.05 1.5-1.97.83-.95 1.5-1.85 1.5-2 0-.18.68-1.08 1.5-2 .83-.95 1.5-1.85 1.5-2.05s1.13-1.53 2.5-2.98 2.5-2.82 2.5-3.05c0-.55 13.95-14.57 15.28-15.35.57-.35 2.1-1.6 3.37-2.8 1.28-1.2 2.7-2.37 3.15-2.6s1.38-.92 2.05-1.52c.7-.63 1.65-1.33 2.13-1.6a28 28 0 0 0 2.15-1.35L376.5 95l2.38-1.62c.7-.48 1.6-1.05 2-1.28.42-.22 1.15-.72 1.62-1.1.48-.37 2.5-1.5 4.5-2.5s4.03-2.12 4.5-2.5c1.15-.9 7.35-4 8-4 .28 0 1.85-.67 3.5-1.5a21 21 0 0 1 3.5-1.5c.3 0 .95-.22 1.5-.5.55-.27 1.2-.5 1.5-.5.28 0 1.4-.45 2.5-1s2.23-1 2.5-1c.3 0 .95-.22 1.5-.5a5 5 0 0 1 1.5-.5c.28 0 .95-.22 1.5-.5.55-.27 1.45-.5 2-.5s1.45-.22 2-.5c.55-.27 1.45-.5 2-.5s1.45-.22 2-.5c.55-.27 1.45-.5 2-.5s1.45-.22 2-.5q.97-.51 2.5-.5 1.54.01 2.5-.5c.75-.37 1.48-.5 3-.5 1.53 0 2.25-.12 3-.5.8-.4 1.48-.5 3.5-.5s2.7-.1 3.5-.5c.95-.47 1.48-.5 18.5-.5 17.03 0 17.55.03 18.5.5.83.43 1.48.5 4 .5s3.18.08 4 .5c.8.4 1.48.5 3.5.5s2.7.1 3.5.5q.97.51 2.5.5 1.54-.01 2.5.5.97.51 2.5.5 1.54-.01 2.5.5c.55.28 1.45.5 2 .5s1.45.23 2 .5c.55.28 1.45.5 2 .5s1.45.23 2 .5c.55.28 1.23.5 1.5.5.28 0 .95.23 1.5.5.55.28 1.45.5 2 .5s1.45.23 2 .5c.55.28 1.23.5 1.5.5.28 0 .95.23 1.5.5.55.28 1.2.5 1.5.5.28 0 1.4.45 2.5 1s2.23 1 2.5 1c.28 0 1.85.68 3.5 1.5 1.65.83 3.23 1.5 3.5 1.5.65 0 10.85 5.1 12 6 .48.38 1.6 1.05 2.5 1.5s2.03 1.13 2.5 1.5 1.23.88 1.63 1.1c.42.23 1.32.8 2 1.28L565.5 96c.63.43 1.7 1.15 2.38 1.63a35 35 0 0 0 2.17 1.37c.5.28 1.75 1.25 2.78 2.18a21 21 0 0 0 2.9 2.3c1.3.8 19.27 18.8 19.27 19.35 0 .22.68 1.15 1.5 2.1a9 9 0 0 1 1.5 2c0 .17.6 1 1.35 1.82s1.73 2.28 2.18 3.2c.42.93 1.15 2.13 1.57 2.68s1.13 1.67 1.53 2.5c.4.82 1.02 1.9 1.4 2.37.95 1.18 2.97 5.23 2.97 5.93 0 .32.68 1.9 1.5 3.5.83 1.62 1.5 3.22 1.5 3.57s.23 1 .5 1.45c.28.45.5 1.13.5 1.5s.23 1.05.5 1.5c.28.45.5 1.13.5 1.5.03 1 1.3 3.15 1.93 3.25.3.05 1.02-.27 1.65-.75.62-.45 1.67-1.17 2.3-1.57l4.3-2.8 4.7-3.2c.7-.48 1.65-1.1 2.12-1.38s1.45-.9 2.13-1.37l2.37-1.63 2.38-1.62c.7-.48 1.65-1.1 2.12-1.38s1.45-.9 2.13-1.37l2.37-1.63 2.38-1.62c.7-.48 1.65-1.1 2.12-1.38s1.45-.9 2.13-1.37l2.37-1.63 2.38-1.62c.7-.48 1.65-1.1 2.12-1.38s1.45-.9 2.13-1.37l2.37-1.63 2.38-1.62c.7-.48 1.65-1.1 2.12-1.38s1.45-.9 2.13-1.37c1.7-1.18 3.32-2.28 4.37-2.95.48-.33.9-.8.95-1.08.1-.62-8.45-17.8-9.55-19.22a14 14 0 0 1-1.5-2.5c-.4-.83-1.1-1.95-1.57-2.53a5 5 0 0 1-.83-1.27c0-.15-.45-.83-1-1.53-.55-.67-1-1.35-1-1.5 0-.12-.45-.8-1-1.5-.55-.67-1-1.35-1-1.5 0-.12-.45-.8-1-1.5-.55-.67-1-1.37-1-1.5 0-.15-.67-1.02-1.5-1.97a9 9 0 0 1-1.5-2c0-.18-.9-1.3-2-2.48-1.1-1.2-2-2.32-2-2.52s-1.8-2.23-4-4.48-4-4.27-4-4.5c0-.6-4.93-5.55-6.12-6.15-.55-.27-3.3-2.8-6.13-5.57-2.82-2.8-5.47-5.25-5.9-5.45-.4-.23-1.3-.88-2-1.5a13 13 0 0 0-2.02-1.5 21 21 0 0 1-2.65-2.1 27 27 0 0 0-5.13-3.75c-.5-.3-1.52-1.08-2.3-1.7a35 35 0 0 0-4.62-3.28c-.4-.22-1.15-.72-1.63-1.1-.47-.37-1.6-1.05-2.5-1.5s-2.02-1.12-2.5-1.5c-.47-.37-1.6-1.05-2.5-1.5s-2.02-1.12-2.5-1.5c-1.15-.9-21.35-11-22-11-.27 0-1.85-.67-3.5-1.5a20 20 0 0 0-3.5-1.5c-.27 0-1.4-.45-2.5-1s-2.22-1-2.5-1c-.3 0-.95-.22-1.5-.5a5 5 0 0 0-1.5-.5 5 5 0 0 1-1.5-.5 5 5 0 0 0-1.5-.5 5 5 0 0 1-1.5-.5 5 5 0 0 0-1.5-.5 5 5 0 0 1-1.5-.5 5 5 0 0 0-1.5-.5 5 5 0 0 1-1.5-.5 5 5 0 0 0-1.5-.5 5 5 0 0 1-1.5-.5 5 5 0 0 0-2-.5c-.55 0-1.45-.22-2-.5a5 5 0 0 0-2-.5c-.55 0-1.45-.22-2-.5a5 5 0 0 0-2-.5c-.55 0-1.45-.22-2-.5a5 5 0 0 0-2-.5c-.55 0-1.45-.22-2-.5a5 5 0 0 0-2.5-.5 5 5 0 0 1-2.5-.5c-.75-.37-1.47-.5-3-.5-1.52 0-2.25-.12-3-.5-.75-.37-1.47-.5-3-.5-1.52 0-2.25-.12-3-.5-.75-.37-1.47-.5-3-.5-1.52 0-2.25-.12-3-.5-.85-.42-1.47-.5-4.5-.5-3.02 0-3.65-.07-4.5-.5-.9-.45-1.47-.5-6.62-.5-5.33 0-5.65-.02-6.05-.5-.43-.5-.75-.5-13.33-.5s-12.9 0-13.32.5m71.95 520.65c-2.75 1.4-5.75 4.18-6.88 6.43-.98 1.9-1.15 7.9-.25 9.37.28.45.5 1.17.5 1.6 0 .93 7.33 8.58 9.05 9.48.5.25 1.75 1.22 2.78 2.15a23 23 0 0 0 2.92 2.32c3.25 1.93 6.25 6.95 6.25 10.5 0 6.6-7.63 11.2-13.58 8.23-1.75-.9-6.42-5.35-6.42-6.15 0-1.38-1.43-1.88-2.98-1.08-2.22 1.13-2.55 2.53-1.02 4.45.55.68 1 1.38 1 1.55 0 .9 4.15 4.58 6.55 5.78 3.72 1.87 10.2 1.87 13.9 0s7.55-6.15 7.55-8.4c0-.33.22-.98.5-1.43.4-.65.5-1.28.5-2.95s-.1-2.3-.5-2.95a3.4 3.4 0 0 1-.5-1.42c0-2.3-6.03-10.08-9.03-11.63-.47-.25-1.42-.95-2.12-1.58a13 13 0 0 0-2.03-1.5c-.42-.22-1.62-1.2-2.65-2.15s-2.1-1.8-2.37-1.87c-.3-.1-.6-.43-.7-.73s-.58-1.05-1.08-1.67c-2.35-2.87-2.52-4.53-.87-7.85 1.55-3.1 2.52-3.65 6.37-3.65 3.25 0 4.6.65 7.73 3.65 1.5 1.45 2.35 2.1 2.77 2.1.78-.02 3.48-2.5 3.48-3.22 0-.58-4.28-4.88-5.45-5.5-.38-.2-1.18-.73-1.78-1.2a4 4 0 0 0-1.7-.83c-.32 0-1.02-.23-1.57-.5-1.98-1-5.65-.73-8.38.65m-377.23.25c-.6.6-.6 53.6 0 54.2.55.55 3.65.55 4.2 0 .35-.35.4-1.77.4-12.1s.05-11.75.4-12.1c.32-.32 1.15-.4 5-.4 4.12 0 4.72-.05 5.6-.5.82-.43 1.47-.5 4-.5 2.52 0 3.17-.08 4-.5.55-.28 1.25-.5 1.6-.5.4 0 1.15-.47 2.07-1.28.8-.7 1.8-1.45 2.2-1.65.83-.4 3.15-4.67 3.13-5.75 0-.32.22-.92.5-1.37.72-1.17.72-4.73 0-5.9-.28-.45-.5-1.1-.5-1.42 0-2.25-3.85-6.53-7.55-8.4C171 522 171 522 167.5 522c-3.03 0-3.65-.07-4.5-.5-1.35-.67-13.93-.77-14.6-.1m22.15 6.38c7.3 3.67 7.3 12.77 0 16.45-1.85.92-16.3 1.25-17.15.37-.6-.58-.6-16.62 0-17.2.85-.87 15.3-.55 17.15.38m102.3-5.93c-.85.85-.85.85-.85 27.1 0 23.55.05 26.3.4 26.65.55.58 4.65.58 5.2 0 .37-.37.47-20.92.12-23.72-.17-1.28 2-1.25 3.68.07 1.25.98 2.6 2.55 2.6 3.03 0 .12.68 1 1.5 1.95a9 9 0 0 1 1.5 2c0 .17.9 1.3 2 2.47 1.1 1.2 2 2.3 2 2.5 0 .18.68 1.08 1.5 2.03a9 9 0 0 1 1.5 2c0 .17.63 1 1.4 1.87.75.85 1.53 1.9 1.7 2.33a6.8 6.8 0 0 0 5.85 3.87c2.23 0 3.05-.27 3.05-1.02 0-.13-.9-1.2-2-2.38-1.1-1.2-2-2.3-2-2.5a9 9 0 0 0-1.5-2.02 9 9 0 0 1-1.5-2c0-.15-.67-1.05-1.5-2a9 9 0 0 1-1.5-2c0-.18-.9-1.3-2-2.48-1.1-1.2-2-2.3-2-2.5a8 8 0 0 0-1.4-1.9c-1.3-1.45-2.1-2.82-2.1-3.6 0-.75 2.38-1.6 4.5-1.6 1.53 0 2.25-.12 3-.5.55-.27 1.25-.5 1.58-.5.32 0 1.17-.42 1.87-.95.73-.5 1.65-1.15 2.1-1.42.45-.28.98-.85 1.2-1.25.2-.43.8-1.3 1.33-1.98.57-.75.92-1.5.92-1.92 0-.4.23-1.08.5-1.53.75-1.22.75-6.67 0-7.9a3.5 3.5 0 0 1-.5-1.52c0-.45-.35-1.15-.98-1.93a9 9 0 0 1-1.12-1.75c-.08-.27-.52-.67-.98-.9-.42-.22-1.45-.97-2.25-1.67-.92-.8-1.67-1.28-2.07-1.28-.35 0-1.05-.22-1.6-.5-.83-.42-1.48-.5-4-.5s-3.18-.07-4-.5c-1.98-1-14.08-.72-15.15.35m22.53 6.33c1.5.75 2.42 1.37 2.52 1.7.1.27.6 1 1.13 1.65.97 1.12.97 1.12.97 4.37 0 4.83-.62 5.9-4.57 7.88-3.13 1.57-17.9 1.87-17.7.35.25-2.15.27-15.03 0-15.68-.6-1.47-.73-1.45 7.65-1.45 7.62 0 7.62 0 10 1.18m34.47-6.33c-.85.85-.85.85-.85 27.1 0 30.35-.37 27.05 3 27.05 3.3 0 3 1.38 3-13.5 0-11.23.05-12.75.4-13.1.33-.35 1.6-.4 10.1-.4 11.28 0 10.5.18 10.5-2.5 0-2.67.78-2.5-10.5-2.5-8.5 0-9.77-.05-10.1-.4-.6-.58-.6-15.62 0-16.2.33-.35 1.6-.4 10.1-.4 11.45 0 10.5.28 10.5-3 0-3.3 1.3-3-13.05-3-12.25 0-12.25 0-13.1.85m48.55-.45c-.7.68-.6 41.4.1 42.55a4 4 0 0 1 .5 1.92c0 2 4.48 8.13 5.93 8.13.12 0 .85.45 1.57 1a5 5 0 0 0 1.93 1c.32 0 1.02.22 1.57.5 2.28 1.15 10.6.7 13.45-.73 3.85-1.95 8.55-7.1 8.55-9.4 0-.32.23-.97.5-1.42.43-.7.5-1.28.5-4 0-2.75.08-3.3.5-4 1.05-1.73.73-34.03-.35-35.1a2.93 2.93 0 0 0-4.3 0c-.85.85-.85.85-.85 21.02 0 20.2 0 20.2-1.17 22.6-3.78 7.55-13.98 8.93-20.18 2.7-1.35-1.35-2.65-3.67-2.65-4.7 0-.32-.22-.97-.5-1.42-.5-.8-.5-1.28-.5-20.08 0-19.27 0-19.27-.85-20.12-.98-.98-3-1.23-3.75-.45m-156.25 6.38c-1.72 3.45-3.15 6.5-3.15 6.8 0 .27-1.58 3.64-3.5 7.47-1.92 3.85-3.5 7.23-3.5 7.5 0 .3-1.58 3.68-3.5 7.5-1.92 3.85-3.5 7.23-3.5 7.53 0 .27-1.12 2.74-2.5 5.47-2.85 5.68-2.6 5.05-2.1 5.55.4.42 4.45.57 5 .2.43-.28 6.6-12.77 6.6-13.35 0-.83 1.25-3.15 2.05-3.83.73-.62 22.5-1.02 23.35-.42.45.3 1.6 2.6 1.6 3.17 0 .9 6.43 13.53 7.18 14.13.82.65 3.8.72 4.42.1.73-.7.43-1.5-3.6-9.55-2.2-4.37-4-8.2-4-8.5 0-.28-1.35-3.2-3-6.5-1.65-3.28-3-6.2-3-6.5 0-.28-1.12-2.75-2.5-5.5-1.37-2.72-2.5-5.2-2.5-5.47 0-.58-5.07-10.9-5.7-11.66-.72-.82-1.02-.4-4.15 5.85m4.15 7.15c.2.25.55.77.75 1.2l2.68 5.27c1.25 2.48 2.27 4.75 2.27 5.05 0 .27.58 1.65 1.28 3.02 1.85 3.73 2.55 3.4-7.2 3.48-9.05.07-9.08.05-9.08-1.38 0-.47 5.08-11 7.93-16.4.42-.77.85-.85 1.37-.25m217.85-13.03c-.07.23-.15.83-.15 1.38 0 .52-.22 1.32-.5 1.77-.42.7-.5 1.28-.5 3.5 0 2.25-.07 2.83-.5 3.5-.42.7-.5 1.28-.5 3.5 0 2.25-.07 2.83-.5 3.5-.42.7-.5 1.28-.5 3.5 0 2.25-.07 2.83-.5 3.5-.42.7-.5 1.28-.5 4 0 2.75-.07 3.3-.5 4-.4.65-.5 1.28-.5 3 0 1.75-.1 2.35-.5 3-.42.7-.5 1.28-.5 4 0 2.75-.07 3.3-.5 4-.4.65-.5 1.28-.5 3 0 1.75-.1 2.35-.5 3-.95 1.55-.42 1.95 2.5 1.95 2.98 0 3-.02 3-3.5 0-2.3.08-2.87.5-3.55.43-.7.5-1.28.5-4 0-2.75.08-3.3.5-4 .43-.7.5-1.28.5-3.5 0-2.25.08-2.82.5-3.5.43-.7.5-1.28.5-4 0-2.75.08-3.3.5-4 .43-.7.5-1.28.5-3.47 0-3.48 1.08-5.18 2.08-3.3 3.22 6.17 14.92 29.9 14.92 30.27 0 1.7 3.05 6.4 4.05 6.25.63-.08 8.9-15.95 8.93-17.17.02-.5 1.97-4.48 9.05-18.55 1.07-2.15 1.97-1.95 1.97.45 0 1.25.13 1.92.5 2.52.43.7.5 1.25.5 4 0 2.73.08 3.3.5 4 .43.68.5 1.25.5 3.5 0 2.23.08 2.8.5 3.5.43.7.5 1.25.5 4 0 2.73.08 3.3.5 4 .43.68.5 1.25.5 3.5 0 2.23.08 2.8.5 3.5.28.45.5 1.15.5 1.55 0 1.43 3.45 2.28 4.6 1.1.6-.6.55-3.5-.1-4.55-.42-.67-.5-1.25-.5-3.5 0-2.22-.07-2.8-.5-3.5-.42-.67-.5-1.25-.5-3.5 0-2.22-.07-2.8-.5-3.5-.42-.67-.5-1.25-.5-3.5 0-2.22-.07-2.8-.5-3.5-.42-.67-.5-1.25-.5-3.5 0-2.22-.07-2.8-.5-3.5-.42-.67-.5-1.25-.5-3.5 0-2.22-.07-2.8-.5-3.5-.42-.67-.5-1.25-.5-3.5 0-2.22-.07-2.8-.5-3.47-.4-.65-.5-1.35-.55-3.6-.07-2.93-.32-3.53-1.27-3.15-.45.17-15.68 30.5-15.68 31.25 0 .27-1.02 2.55-2.27 5.02-1.28 2.5-2.48 4.85-2.68 5.28-.77 1.57-1.65 2.07-1.97 1.17a7 7 0 0 0-.63-1.1 3 3 0 0 1-.45-1.4q-.01-.72-1-2c-.57-.7-1-1.52-1-1.87 0-.68-18.15-37.18-18.5-37.18-.1 0-.27.18-.35.4"/><path fill="#d3ae6a" d="M432 200.1a7 7 0 0 1-.92 1.42c-.98 1.13-2.08 3.33-2.08 4.1 0 .33-.22.98-.5 1.43-.35.6-.5 1.27-.5 2.45 0 1.5-.12 1.87-1.5 4.57-.82 1.6-1.5 3.2-1.5 3.55 0 .33-.22.98-.5 1.43-.37.6-.5 1.27-.5 2.5 0 1.25-.12 1.9-.5 2.5-.28.45-.5 1.12-.5 1.5s-.22 1.05-.5 1.5-.5 1.1-.5 1.45-.45 1.5-1 2.57c-.55 1.05-1 2.2-1 2.53 0 .35-.22 1-.5 1.45-.37.6-.5 1.27-.5 2.45 0 1.42-.12 1.9-1 3.57-.55 1.05-1 2.2-1 2.53 0 .35-.22 1-.5 1.45q-.49.84-.5 2.1c0 3 1.35 2.85-24.4 2.85-22.12 0-22.65 0-23.6-.5-1.65-.83-4.87-.23-5.8 1.1-.52.75 1.35 2.67 3.83 3.92 1.15.55 2.7 1.65 3.8 2.65a28 28 0 0 0 5.12 3.75c.5.3 1.53 1.08 2.3 1.7 1.6 1.33 3.5 2.65 4.78 3.35.47.28 1.42.98 2.12 1.6.68.6 1.58 1.3 1.98 1.53.75.4 2.35 1.5 4.3 2.9.57.4 1.32.87 1.67 1.02.35.18.75.6.9.98a2 2 0 0 0 .95.97c.35.18 1.05.63 1.53 1 .5.4 1.24.88 1.67 1.1.4.23 1.3.88 2 1.5.68.6 1.6 1.3 2.05 1.53 2.98 1.52 3.5 3.55 1.8 6.92-.85 1.73-1 2.23-1 3.65 0 1.53-.08 1.7-1 2.88-.85 1.07-1 1.45-1 2.47 0 .78-.17 1.5-.5 2.03s-.5 1.27-.5 2.05c0 1-.15 1.4-.82 2.25-1.53 1.9-2.18 3.47-2.18 5.27 0 1.18-.12 1.83-.5 2.43-.28.45-.5 1.1-.5 1.45s-.45 1.5-1 2.57c-.73 1.4-1 2.2-1 3.03 0 .7-.2 1.45-.5 1.95s-.5 1.27-.5 1.95c0 .87-.32 1.77-1.5 4.07-.82 1.6-1.5 3.2-1.5 3.55 0 .33-.22.98-.5 1.43-.62 1.02-.62 1 .15 1.92 1.05 1.25 2.65.83 5.23-1.42.7-.58 1.67-1.33 2.17-1.63 2-1.2 3.3-2.1 4.65-3.25.78-.67 1.83-1.42 2.3-1.67a8 8 0 0 0 1.63-1.25c1.45-1.55 3.15-2.75 3.9-2.75.55 0 1.17-.43 2.62-1.75a19 19 0 0 1 2.68-2.18c.45-.22 1.35-.9 2.05-1.5.67-.6 1.67-1.35 2.17-1.65 2-1.2 3.3-2.1 4.65-3.25.78-.67 1.78-1.4 2.18-1.6.42-.22 1.15-.7 1.65-1.1.47-.37 1.17-.82 1.52-1a2 2 0 0 0 .95-.97c.47-1.15 2.12-1.73 3.6-1.25.42.12 1.07.3 1.42.37.38.05 1.5.9 2.5 1.83 1.03.95 2.2 1.92 2.6 2.15.75.4 2.33 1.47 4.25 2.85.55.4 1.35.9 1.78 1.12.43.2 1.3.88 2 1.5.68.6 1.58 1.3 1.98 1.53a43 43 0 0 1 3.95 2.67c.4.3.82.8.95 1.13.17.47.4.6 1.1.6.77 0 1.17.25 2.72 1.67a24 24 0 0 0 5.03 3.7c.47.28.97.78 1.12 1.13q.25.66 2.08 1.55c1 .5 2.45 1.47 3.25 2.17s1.55 1.28 1.65 1.28.8.45 1.52 1c3.32 2.47 4.82-.48 2.5-4.93a10 10 0 0 1-1-2.57c0-.35-.23-1-.5-1.45a3.5 3.5 0 0 1-.5-1.5c0-.38-.23-1.05-.5-1.5-.33-.5-.5-1.25-.5-2 0-.73-.2-1.48-.5-2a3.4 3.4 0 0 1-.5-1.45c0-.33-.45-1.48-1-2.53-.73-1.42-1-2.22-1-3.07 0-.68-.2-1.45-.5-1.95a3.4 3.4 0 0 1-.5-1.45c0-.33-.45-1.48-1-2.53-.73-1.42-1-2.22-1-3.07 0-.68-.2-1.45-.5-1.95a3.5 3.5 0 0 1-.5-1.5c0-.38-.23-1.05-.5-1.5a3.5 3.5 0 0 1-.5-1.5c0-.38-.23-1.05-.5-1.5a3.5 3.5 0 0 1-.5-1.5c0-.38-.23-1.05-.5-1.5-.38-.6-.5-1.25-.5-2.58 0-1.62-.08-1.85-.75-2.65-.9-1.02-.95-1.5-.15-1.87.35-.15.75-.58.9-.95.15-.38.55-.8.9-.98.35-.15 1.1-.62 1.67-1.02a48 48 0 0 1 4.3-2.9c.43-.23 1.5-1.13 2.4-1.98s2.1-1.82 2.68-2.15a33 33 0 0 0 4.75-3.3 15 15 0 0 1 2.17-1.6c.43-.22 1.3-.9 2-1.5.68-.62 2.03-1.52 3-2 1-.52 2.48-1.55 3.43-2.47.92-.88 2.05-1.78 2.5-2 .45-.23 1.27-.75 1.82-1.15a54 54 0 0 1 4.38-2.93c.97-.52 4-3.57 4-4.02 0-1.78-4.58-2.75-7-1.5-.95.47-1.48.5-16 .5s-15.05-.03-16-.5c-.9-.45-1.48-.5-7.1-.5-7.53 0-7.9-.15-7.9-3.35 0-1.33-.13-1.98-.5-2.6a3.5 3.5 0 0 1-.5-1.5c0-.38-.23-1.05-.5-1.5-.33-.5-.5-1.25-.5-2 0-.73-.2-1.48-.5-2a3.4 3.4 0 0 1-.5-1.45c0-.33-.45-1.48-1-2.53a10 10 0 0 1-1-2.57c0-.35-.23-1-.5-1.45-.3-.5-.5-1.25-.5-1.95 0-.83-.28-1.63-1-3.03-.73-1.42-1-2.22-1-3.07 0-.68-.2-1.45-.5-1.95a3.5 3.5 0 0 1-.5-1.5c0-.38-.23-1.05-.5-1.5a3.5 3.5 0 0 1-.5-1.5c0-.38-.23-1.05-.5-1.5a3.5 3.5 0 0 1-.5-1.5c0-.38-.23-1.05-.5-1.5a3.5 3.5 0 0 1-.5-1.5c0-.38-.23-1.05-.5-1.5a4 4 0 0 1-.5-1.93c0-2.5-2.35-5.67-3-4.02m.95 34.4c.05.47.3 1.15.58 1.52.25.38.47 1 .47 1.43q.01.72 1 2c1 1.25 1 1.25 1 3.45 0 1.77.1 2.4.5 3.05.28.45.5 1.13.5 1.53 0 .45.35 1.17 1 1.97s1 1.5 1 1.95c0 .4.23 1.1.5 1.55.38.6.5 1.25.5 2.58 0 1.74 0 1.74 1.23 3.04 1.25 1.3 1.25 1.3 14.7 1.43 15.37.15 14.6 0 12.3 2.25a13 13 0 0 1-2.08 1.68 16 16 0 0 0-2.47 2 17 17 0 0 1-3.58 2.52c-1.15.55-1.9 1.1-2 1.43-.28.87-1.17 1.65-3.1 2.65-6.35 3.32-8.4 6.3-6.5 9.42.3.5.5 1.25.5 1.95 0 .83.28 1.63 1 3.03.73 1.42 1 2.22 1 3.07 0 .67.2 1.45.5 1.95.28.45.5 1.1.5 1.45 0 .32.45 1.47 1 2.52.73 1.43 1 2.23 1 3.08 0 .65.2 1.45.48 1.9.25.42.52 1.2.6 1.75.05.52.2 1.22.3 1.52.27.85-.63.75-1.93-.2a53 53 0 0 0-4.47-2.95c-.48-.27-1.43-.97-2.13-1.6a14 14 0 0 0-1.97-1.5c-.4-.2-1.4-.92-2.18-1.6a33 33 0 0 0-4.67-3.25c-.5-.3-1.58-1.12-2.38-1.82-2.47-2.18-5.77-1.6-8.77 1.5-2 2.07-3.58 3.25-4.4 3.25-.55 0-1.18.42-2.63 1.75a18 18 0 0 1-2.67 2.15c-.95.47-3.18 2.57-3.18 3 0 .65-.8 1.1-1.95 1.1-1.1 0-1.55.2-3.12 1.3-.93.67-.9-.28.1-2.3.7-1.4.97-2.3.97-3.1 0-.7.2-1.45.5-1.95.28-.45.5-1.13.5-1.5s.23-1.05.5-1.5c.28-.45.5-1.13.5-1.5s.23-1.05.5-1.5c.28-.45.5-1.13.5-1.5s.23-1.05.5-1.5c.28-.45.5-1.13.5-1.5s.23-1.05.5-1.5c.28-.45.5-1.13.5-1.5s.23-1.05.5-1.5c.4-.68.5-1.28.5-3.05 0-2.85-1.55-4.6-6.95-7.83-.5-.3-1.52-1.07-2.3-1.7a35 35 0 0 0-4.77-3.35c-.48-.27-1.43-.97-2.13-1.6a14 14 0 0 0-2-1.5c-.42-.22-1.35-.97-2.07-1.67-2.3-2.25-3.13-2.1 12.77-2.25 7.65-.08 13.95-.18 14-.25a12 12 0 0 0 1.45-3.38c0-.32.23-.97.5-1.42.28-.45.5-1.13.5-1.5s.23-1.05.5-1.5c.28-.45.5-1.13.5-1.5s.23-1.05.5-1.5c.28-.45.5-1.13.5-1.5s.23-1.05.5-1.5c.28-.45.5-1.13.5-1.5s.23-1.05.5-1.5c.28-.45.5-1.13.5-1.5s.23-1.05.5-1.5c.28-.45.5-1.18.5-1.58 0-.42.23-1.02.5-1.37.28-.35.5-.98.5-1.4 0-1.78 1.8-2.78 1.95-1.1"/><path fill="#201e1f" d="M431.53 234.15c-.28.37-.53.97-.53 1.37s-.22 1.08-.5 1.53c-.27.45-.5 1.12-.5 1.5s-.22 1.05-.5 1.5c-.27.45-.5 1.12-.5 1.5s-.22 1.05-.5 1.5c-.27.45-.5 1.12-.5 1.5s-.22 1.05-.5 1.5c-.27.45-.5 1.12-.5 1.5s-.22 1.05-.5 1.5c-.27.45-.5 1.12-.5 1.5s-.22 1.05-.5 1.5c-.27.45-.5 1.12-.5 1.5s-.22 1.05-.5 1.5c-.27.45-.5 1.12-.5 1.47 0 .68-1.12 2.95-1.6 3.28-.15.1-6.32.2-13.7.2-13.35 0-14.2.02-14.2.6 0 .4 2.73 3.02 3.63 3.47.42.2 1.4.93 2.17 1.6a33 33 0 0 0 4.65 3.25c.5.3 1.53 1.08 2.3 1.7a32 32 0 0 0 4.85 3.4c2.05 1.1 4.48 3.83 4.28 4.78a39 39 0 0 0-.3 2.17c-.08.75-.35 1.7-.6 2.13a3.5 3.5 0 0 0-.48 1.45c0 .37-.22 1.05-.5 1.5s-.5 1.12-.5 1.5-.22 1.05-.5 1.5-.5 1.12-.5 1.5-.22 1.05-.5 1.5-.5 1.12-.5 1.5-.22 1.05-.5 1.5-.5 1.12-.5 1.5-.22 1.05-.5 1.5c-.3.5-.5 1.27-.5 1.95 0 .77-.28 1.65-.87 2.85-1.2 2.4-1.1 3.4.22 2.17.3-.27 1-.75 1.58-1.07 1.82-1 3.32-2.02 4.77-3.28.78-.67 1.75-1.4 2.18-1.6.4-.22 1.3-.9 2-1.5.67-.6 1.67-1.35 2.17-1.65 2-1.2 3.3-2.1 4.65-3.25.78-.67 1.78-1.4 2.18-1.6.42-.22 1.15-.72 1.65-1.1 1.47-1.15 2.95-.72 5.77 1.7a32 32 0 0 0 4.65 3.25c.5.3 1.5 1.05 2.17 1.65.7.6 1.6 1.28 2 1.5.43.2 1.4.93 2.18 1.6a29 29 0 0 0 4.77 3.28 10 10 0 0 1 1.7 1.2c.85.8 1.85.82 1.6.02a15 15 0 0 1-.35-1.6 6 6 0 0 0-.6-1.67 3.6 3.6 0 0 1-.42-1.78c0-.85-.25-1.65-1-3.05a10 10 0 0 1-1-2.57c0-.35-.23-1-.5-1.45-.3-.5-.5-1.25-.5-1.95 0-.83-.28-1.63-1-3.03-.73-1.42-1-2.22-1-3.07 0-.65-.2-1.45-.48-1.9a5 5 0 0 1-.6-1.63c-.07-.47-.22-1.22-.32-1.67-.18-.95 1.27-2.6 3.35-3.83a27 27 0 0 0 5.2-3.75c1-.92 2.27-1.95 2.82-2.25 2-1.17 3.33-2.12 4.73-3.3a15 15 0 0 1 2.17-1.6c.9-.45 3.63-3.07 3.63-3.47 0-.58-.85-.6-14.2-.6-7.38 0-13.55-.1-13.7-.2-.65-.45-1.6-2.65-1.6-3.78 0-.7-.2-1.47-.5-1.97a3.4 3.4 0 0 1-.5-1.45c0-.33-.45-1.48-1-2.53a10 10 0 0 1-1-2.57c0-.35-.23-1-.5-1.45-.33-.5-.5-1.25-.5-2 0-.73-.2-1.48-.5-2a3.5 3.5 0 0 1-.5-1.5c0-.38-.23-1.05-.5-1.5a3.5 3.5 0 0 1-.5-1.5c0-.38-.23-1.03-.48-1.48a4 4 0 0 1-.57-1.62c-.1-1.05-.73-1.2-1.43-.3"/></svg>